<mxfile host="app.diagrams.net" modified="2024-04-18T13:03:02.697Z" agent="Mozilla/5.0 (Windows NT 10.0; Win64; x64) AppleWebKit/537.36 (KHTML, like Gecko) Chrome/123.0.0.0 Safari/537.36" etag="Gq0gh1utQ2Hm0JAOmMM7" version="24.2.5" type="github">
  <diagram name="Page-1" id="Msz-cd814kh6OnqAU00_">
    <mxGraphModel dx="1320" dy="902" grid="1" gridSize="10" guides="1" tooltips="1" connect="1" arrows="1" fold="1" page="1" pageScale="1" pageWidth="850" pageHeight="1100" math="0" shadow="0">
      <root>
        <mxCell id="0" />
        <mxCell id="1" parent="0" />
        <mxCell id="aKXDSLKAKzX5VBDTXgsx-4" value="" style="edgeStyle=orthogonalEdgeStyle;rounded=0;orthogonalLoop=1;jettySize=auto;html=1;" edge="1" parent="1" source="aKXDSLKAKzX5VBDTXgsx-1" target="aKXDSLKAKzX5VBDTXgsx-3">
          <mxGeometry relative="1" as="geometry" />
        </mxCell>
        <mxCell id="aKXDSLKAKzX5VBDTXgsx-1" value="Start" style="rounded=1;whiteSpace=wrap;html=1;fillColor=#d5e8d4;strokeColor=#82b366;" vertex="1" parent="1">
          <mxGeometry x="320" y="80" width="120" height="60" as="geometry" />
        </mxCell>
        <mxCell id="aKXDSLKAKzX5VBDTXgsx-5" value="" style="edgeStyle=orthogonalEdgeStyle;rounded=0;orthogonalLoop=1;jettySize=auto;html=1;" edge="1" parent="1" source="aKXDSLKAKzX5VBDTXgsx-2" target="aKXDSLKAKzX5VBDTXgsx-3">
          <mxGeometry relative="1" as="geometry" />
        </mxCell>
        <mxCell id="aKXDSLKAKzX5VBDTXgsx-2" value="Generate a random number" style="rounded=0;whiteSpace=wrap;html=1;fillColor=#fff2cc;strokeColor=#d6b656;" vertex="1" parent="1">
          <mxGeometry x="320" y="180" width="120" height="60" as="geometry" />
        </mxCell>
        <mxCell id="aKXDSLKAKzX5VBDTXgsx-14" value="" style="edgeStyle=orthogonalEdgeStyle;rounded=0;orthogonalLoop=1;jettySize=auto;html=1;" edge="1" parent="1" source="aKXDSLKAKzX5VBDTXgsx-3" target="aKXDSLKAKzX5VBDTXgsx-6">
          <mxGeometry relative="1" as="geometry" />
        </mxCell>
        <mxCell id="aKXDSLKAKzX5VBDTXgsx-3" value="Wait for user to enter in a number&amp;nbsp;&lt;div&gt;from 1 to 6&lt;/div&gt;" style="shape=parallelogram;perimeter=parallelogramPerimeter;whiteSpace=wrap;html=1;fixedSize=1;fillColor=#f8cecc;strokeColor=#b85450;" vertex="1" parent="1">
          <mxGeometry x="290" y="280" width="180" height="60" as="geometry" />
        </mxCell>
        <mxCell id="aKXDSLKAKzX5VBDTXgsx-8" value="" style="edgeStyle=orthogonalEdgeStyle;rounded=0;orthogonalLoop=1;jettySize=auto;html=1;" edge="1" parent="1" source="aKXDSLKAKzX5VBDTXgsx-6" target="aKXDSLKAKzX5VBDTXgsx-7">
          <mxGeometry relative="1" as="geometry" />
        </mxCell>
        <mxCell id="aKXDSLKAKzX5VBDTXgsx-9" value="No" style="edgeLabel;html=1;align=center;verticalAlign=middle;resizable=0;points=[];" vertex="1" connectable="0" parent="aKXDSLKAKzX5VBDTXgsx-8">
          <mxGeometry x="-0.1" y="-1" relative="1" as="geometry">
            <mxPoint as="offset" />
          </mxGeometry>
        </mxCell>
        <mxCell id="aKXDSLKAKzX5VBDTXgsx-17" value="" style="edgeStyle=orthogonalEdgeStyle;rounded=0;orthogonalLoop=1;jettySize=auto;html=1;" edge="1" parent="1" source="aKXDSLKAKzX5VBDTXgsx-6" target="aKXDSLKAKzX5VBDTXgsx-16">
          <mxGeometry relative="1" as="geometry" />
        </mxCell>
        <mxCell id="aKXDSLKAKzX5VBDTXgsx-18" value="Yes" style="edgeLabel;html=1;align=center;verticalAlign=middle;resizable=0;points=[];" vertex="1" connectable="0" parent="aKXDSLKAKzX5VBDTXgsx-17">
          <mxGeometry x="-0.1733" y="1" relative="1" as="geometry">
            <mxPoint as="offset" />
          </mxGeometry>
        </mxCell>
        <mxCell id="aKXDSLKAKzX5VBDTXgsx-6" value="Is the user&#39;s guess&lt;div&gt;the same as the&lt;/div&gt;&lt;div&gt;random roll?&lt;/div&gt;" style="rhombus;whiteSpace=wrap;html=1;fillColor=#ffe6cc;strokeColor=#d79b00;" vertex="1" parent="1">
          <mxGeometry x="310" y="370" width="140" height="140" as="geometry" />
        </mxCell>
        <mxCell id="aKXDSLKAKzX5VBDTXgsx-7" value="&lt;div&gt;Increase totalGuesses&lt;/div&gt;Increase incorrect answer counter.&lt;div&gt;Calculate win perctentage&lt;/div&gt;" style="rounded=0;whiteSpace=wrap;html=1;fillColor=#fff2cc;strokeColor=#d6b656;" vertex="1" parent="1">
          <mxGeometry x="130" y="385" width="120" height="110" as="geometry" />
        </mxCell>
        <mxCell id="aKXDSLKAKzX5VBDTXgsx-16" value="&lt;div&gt;Increase totalGuesses&lt;/div&gt;Increase correct answer counter.&lt;div&gt;Calculate win perctentage&lt;/div&gt;" style="rounded=0;whiteSpace=wrap;html=1;fillColor=#fff2cc;strokeColor=#d6b656;" vertex="1" parent="1">
          <mxGeometry x="510" y="385" width="120" height="110" as="geometry" />
        </mxCell>
        <mxCell id="aKXDSLKAKzX5VBDTXgsx-23" value="" style="edgeStyle=orthogonalEdgeStyle;rounded=0;orthogonalLoop=1;jettySize=auto;html=1;" edge="1" parent="1" source="aKXDSLKAKzX5VBDTXgsx-22" target="aKXDSLKAKzX5VBDTXgsx-2">
          <mxGeometry relative="1" as="geometry" />
        </mxCell>
        <mxCell id="aKXDSLKAKzX5VBDTXgsx-22" value="Update correctValueLabel&lt;div&gt;Update totalGuessesLabel&lt;/div&gt;&lt;div&gt;Update win percent label&lt;/div&gt;" style="shape=parallelogram;perimeter=parallelogramPerimeter;whiteSpace=wrap;html=1;fixedSize=1;" vertex="1" parent="1">
          <mxGeometry x="490" y="160" width="180" height="100" as="geometry" />
        </mxCell>
        <mxCell id="aKXDSLKAKzX5VBDTXgsx-24" style="edgeStyle=orthogonalEdgeStyle;rounded=0;orthogonalLoop=1;jettySize=auto;html=1;exitX=0.5;exitY=0;exitDx=0;exitDy=0;entryX=0.44;entryY=0.996;entryDx=0;entryDy=0;entryPerimeter=0;" edge="1" parent="1" source="aKXDSLKAKzX5VBDTXgsx-16" target="aKXDSLKAKzX5VBDTXgsx-22">
          <mxGeometry relative="1" as="geometry" />
        </mxCell>
      </root>
    </mxGraphModel>
  </diagram>
</mxfile>
